<mxfile host="app.diagrams.net" modified="2024-06-12T04:08:53.538Z" agent="Mozilla/5.0 (Windows NT 10.0; Win64; x64) AppleWebKit/537.36 (KHTML, like Gecko) Chrome/125.0.0.0 Safari/537.36" version="24.5.3" etag="gUxTTGWA8LpT2F9j_wB4" type="github">
  <diagram name="Page-1" id="miV3VYBfJF4H4dQrgtGa">
    <mxGraphModel>
      <root>
        <mxCell id="0" />
        <mxCell id="1" parent="0" />
      </root>
    </mxGraphModel>
  </diagram>
</mxfile>
